<svg width="16" height="16" viewBox="0 0 16 16" fill="none" xmlns="http://www.w3.org/2000/svg">
<path d="M3.4762 6.61907C5.21196 6.61907 6.61907 5.21196 6.61907 3.4762C6.61907 1.74045 5.21196 0.333336 3.4762 0.333336C1.74044 0.333336 0.333334 1.74045 0.333334 3.4762C0.333334 5.21196 1.74044 6.61907 3.4762 6.61907Z" stroke="#F9F9FA" stroke-width="0.666669" stroke-linecap="round" stroke-linejoin="round"/>
<path d="M12.0476 6.61907C13.7834 6.61907 15.1905 5.21196 15.1905 3.4762C15.1905 1.74045 13.7834 0.333336 12.0476 0.333336C10.3119 0.333336 8.90475 1.74045 8.90475 3.4762C8.90475 5.21196 10.3119 6.61907 12.0476 6.61907Z" stroke="#F9F9FA" stroke-width="0.666669" stroke-linecap="round" stroke-linejoin="round"/>
<path d="M3.47622 15.1898C5.21198 15.1898 6.61908 13.7827 6.61908 12.047C6.61908 10.3112 5.21198 8.9041 3.47622 8.9041C1.74046 8.9041 0.333351 10.3112 0.333351 12.047C0.333351 13.7827 1.74046 15.1898 3.47622 15.1898Z" stroke="#F9F9FA" stroke-width="0.666669" stroke-linecap="round" stroke-linejoin="round"/>
<path d="M12.0477 15.1898C13.7834 15.1898 15.1905 13.7827 15.1905 12.047C15.1905 10.3112 13.7834 8.9041 12.0477 8.9041C10.3119 8.9041 8.90481 10.3112 8.90481 12.047C8.90481 13.7827 10.3119 15.1898 12.0477 15.1898Z" stroke="#F9F9FA" stroke-width="0.666669" stroke-linecap="round" stroke-linejoin="round"/>
</svg>
